<?xml version="1.0" encoding="UTF-8" standalone="no"?>
<!-- Created with Inkscape (http://www.inkscape.org/) -->

<svg
   width="210mm"
   height="297mm"
   viewBox="0 0 210 297"
   version="1.1"
   id="svg9406"
   inkscape:version="1.1.1 (3bf5ae0d25, 2021-09-20)"
   sodipodi:docname="coins.svg"
   xmlns:inkscape="http://www.inkscape.org/namespaces/inkscape"
   xmlns:sodipodi="http://sodipodi.sourceforge.net/DTD/sodipodi-0.dtd"
   xmlns="http://www.w3.org/2000/svg"
   xmlns:svg="http://www.w3.org/2000/svg">
  <sodipodi:namedview
     id="namedview9408"
     pagecolor="#505050"
     bordercolor="#eeeeee"
     borderopacity="1"
     inkscape:pageshadow="0"
     inkscape:pageopacity="0"
     inkscape:pagecheckerboard="0"
     inkscape:document-units="mm"
     showgrid="false"
     inkscape:zoom="0.74118967"
     inkscape:cx="397.33419"
     inkscape:cy="561.93443"
     inkscape:window-width="1920"
     inkscape:window-height="1017"
     inkscape:window-x="-8"
     inkscape:window-y="-8"
     inkscape:window-maximized="1"
     inkscape:current-layer="layer1" />
  <defs
     id="defs9403" />
  <g
     inkscape:label="Warstwa 1"
     inkscape:groupmode="layer"
     id="layer1">
    <path
       id="path31-4-5"
       style="fill:#999999;stroke-width:0.123362"
       d="M 83.030961,48.152216 A 38.079619,18.391068 0 0 0 44.951631,66.54334 38.079619,18.391068 0 0 0 83.030961,84.934466 38.079619,18.391068 0 0 0 121.11081,66.54334 38.079619,18.391068 0 0 0 83.030961,48.152216 Z m 37.782709,24.713218 a 38.079619,18.391068 0 0 1 -37.782709,16.131315 38.079619,18.391068 0 0 1 -37.780124,-16.11943 38.079619,18.391068 0 0 0 -0.299206,2.271697 38.079619,18.391068 0 0 0 38.07933,18.391126 38.079619,18.391068 0 0 0 38.079849,-18.391126 38.079619,18.391068 0 0 0 -0.29714,-2.283582 z m 0,9.008237 a 38.079619,18.391068 0 0 1 -37.782709,16.131315 38.079619,18.391068 0 0 1 -37.780124,-16.11943 38.079619,18.391068 0 0 0 -0.299206,2.271697 38.079619,18.391068 0 0 0 38.07933,18.391127 38.079619,18.391068 0 0 0 38.079849,-18.391127 38.079619,18.391068 0 0 0 -0.29714,-2.283582 z m 0,9.086784 A 38.079619,18.391068 0 0 1 83.030961,107.09177 38.079619,18.391068 0 0 1 45.250837,90.97234 a 38.079619,18.391068 0 0 0 -0.299206,2.271696 38.079619,18.391068 0 0 0 38.07933,18.391124 38.079619,18.391068 0 0 0 38.079849,-18.391124 38.079619,18.391068 0 0 0 -0.29714,-2.283581 z m 0,8.834601 a 38.079619,18.391068 0 0 1 -7.62847,8.885244 38.079619,18.391068 0 0 1 6.71276,-2.02675 38.079619,18.391068 0 0 0 1.21285,-4.57491 38.079619,18.391068 0 0 0 -0.29714,-2.283584 z m -75.562833,0.01188 a 38.079619,18.391068 0 0 0 -0.299206,2.271694 38.079619,18.391068 0 0 0 38.07933,18.39113 38.079619,18.391068 0 0 0 16.493566,-1.82315 38.079619,18.391068 0 0 1 3.808033,-4.4173 38.079619,18.391068 0 0 1 0.8754,-0.66662 38.079619,18.391068 0 0 1 1.0449,-0.76792 38.079619,18.391068 0 0 1 0.91778,-0.67489 38.079619,18.391068 0 0 1 -23.139679,3.80648 38.079619,18.391068 0 0 1 -37.780124,-16.119424 z m 94.510513,7.807274 a 38.079619,18.391069 0 0 0 -38.07933,18.39062 38.079619,18.391069 0 0 0 38.07933,18.39112 38.079619,18.391069 0 0 0 38.07985,-18.39112 38.079619,18.391069 0 0 0 -38.07985,-18.39061 z m -94.510513,1.19218 a 38.079619,18.391068 0 0 0 -0.299206,2.27169 38.079619,18.391068 0 0 0 38.07933,18.39113 38.079619,18.391068 0 0 0 14.940176,-1.50792 v -4.58938 a 38.079619,18.391068 0 0 1 -14.940176,1.5539 38.079619,18.391068 0 0 1 -37.780124,-16.11942 z m 0,9.07903 a 38.079619,18.391068 0 0 0 -0.299206,2.2717 38.079619,18.391068 0 0 0 9.164298,11.87989 38.079619,18.391068 0 0 1 6.869864,-0.30541 38.079619,18.391068 0 0 1 4.514972,0.20051 38.079619,18.391068 0 0 1 -20.249928,-14.04669 z m 0,9.0873 a 38.079619,18.391068 0 0 0 -0.299206,2.2717 38.079619,18.391068 0 0 0 1.045413,4.03748 38.079619,18.391068 0 0 1 2.831351,-0.52969 38.079619,18.391068 0 0 1 -3.577558,-5.77949 z m 132.293223,5.35471 a 38.079619,18.391069 0 0 1 -37.78271,16.13132 38.079619,18.391069 0 0 1 -37.78012,-16.11943 38.079619,18.391069 0 0 0 -0.29921,2.27169 38.079619,18.391069 0 0 0 38.07933,18.39113 38.079619,18.391069 0 0 0 38.07985,-18.39113 38.079619,18.391069 0 0 0 -0.29714,-2.28358 z m -79.572923,0.12764 a 38.079619,18.391068 0 0 1 -14.940176,1.54978 38.079619,18.391068 0 0 1 -4.788855,-0.18655 38.079619,18.391068 0 0 1 11.573971,4.39559 38.079619,18.391068 0 0 0 8.15506,-1.15755 z m -39.257038,2.66651 a 38.079619,18.391069 0 0 0 -38.07933,18.39113 38.079619,18.391069 0 0 0 38.07933,18.39112 38.079619,18.391069 0 0 0 38.079848,-18.39112 38.079619,18.391069 0 0 0 -38.079848,-18.39113 z m 118.829961,6.21358 a 38.079619,18.391069 0 0 1 -37.78271,16.13131 38.079619,18.391069 0 0 1 -37.78012,-16.11943 38.079619,18.391069 0 0 0 -0.29921,2.2717 38.079619,18.391069 0 0 0 38.07933,18.39112 38.079619,18.391069 0 0 0 38.07985,-18.39112 38.079619,18.391069 0 0 0 -0.29714,-2.28358 z m -79.572923,0.20722 a 38.079619,18.391068 0 0 1 -2.87993,0.51108 38.079619,18.391068 0 0 1 2.87993,4.08554 z m 79.572923,8.88008 a 38.079619,18.391069 0 0 1 -37.78271,16.13131 38.079619,18.391069 0 0 1 -37.78012,-16.11943 38.079619,18.391069 0 0 0 -0.29921,2.2717 38.079619,18.391069 0 0 0 38.07933,18.39112 38.079619,18.391069 0 0 0 38.07985,-18.39112 38.079619,18.391069 0 0 0 -0.29714,-2.28358 z m 0,8.8346 a 38.079619,18.391069 0 0 1 -37.78271,16.13131 38.079619,18.391069 0 0 1 -37.78012,-16.11942 38.079619,18.391069 0 0 0 -0.29921,2.27169 38.079619,18.391069 0 0 0 38.07933,18.39113 38.079619,18.391069 0 0 0 38.07985,-18.39113 38.079619,18.391069 0 0 0 -0.29714,-2.28358 z m -81.047253,0.57774 a 38.079619,18.391069 0 0 1 -37.782708,16.13132 38.079619,18.391069 0 0 1 -37.780123,-16.11943 38.079619,18.391069 0 0 0 -0.299207,2.27169 38.079619,18.391069 0 0 0 38.07933,18.39113 38.079619,18.391069 0 0 0 38.079848,-18.39113 38.079619,18.391069 0 0 0 -0.29714,-2.28358 z m 81.047253,8.42171 a 38.079619,18.391069 0 0 1 -37.78271,16.13132 38.079619,18.391069 0 0 1 -37.78012,-16.11943 38.079619,18.391069 0 0 0 -0.29921,2.27169 38.079619,18.391069 0 0 0 38.07933,18.39113 38.079619,18.391069 0 0 0 38.07985,-18.39113 38.079619,18.391069 0 0 0 -0.29714,-2.28358 z m -81.047253,0.58653 a 38.079619,18.391069 0 0 1 -37.782708,16.13131 38.079619,18.391069 0 0 1 -37.780123,-16.11943 38.079619,18.391069 0 0 0 -0.299207,2.2717 38.079619,18.391069 0 0 0 38.07933,18.39112 38.079619,18.391069 0 0 0 38.079848,-18.39112 38.079619,18.391069 0 0 0 -0.29714,-2.28358 z m 81.047253,8.4925 a 38.079619,18.391069 0 0 1 -37.78271,16.13132 38.079619,18.391069 0 0 1 -37.78012,-16.11943 38.079619,18.391069 0 0 0 -0.29921,2.27169 38.079619,18.391069 0 0 0 38.07933,18.39113 38.079619,18.391069 0 0 0 38.07985,-18.39113 38.079619,18.391069 0 0 0 -0.29714,-2.28358 z m -81.047253,0.59428 a 38.079619,18.391069 0 0 1 -37.782708,16.13131 38.079619,18.391069 0 0 1 -37.780123,-16.11943 38.079619,18.391069 0 0 0 -0.299207,2.2717 38.079619,18.391069 0 0 0 38.07933,18.39113 38.079619,18.391069 0 0 0 38.079848,-18.39113 38.079619,18.391069 0 0 0 -0.29714,-2.28358 z m 81.047253,8.49251 a 38.079619,18.391069 0 0 1 -37.78271,16.13131 38.079619,18.391069 0 0 1 -37.78012,-16.11943 38.079619,18.391069 0 0 0 -0.29921,2.2717 38.079619,18.391069 0 0 0 38.07933,18.39112 38.079619,18.391069 0 0 0 38.07985,-18.39112 38.079619,18.391069 0 0 0 -0.29714,-2.28358 z m -81.047253,0.34209 a 38.079619,18.391069 0 0 1 -37.782708,16.13132 38.079619,18.391069 0 0 1 -37.780123,-16.11943 38.079619,18.391069 0 0 0 -0.299207,2.2717 38.079619,18.391069 0 0 0 38.07933,18.39112 38.079619,18.391069 0 0 0 38.079848,-18.39112 38.079619,18.391069 0 0 0 -0.29714,-2.28359 z" />
  </g>
</svg>
