<svg xmlns="http://www.w3.org/2000/svg" xmlns:xlink="http://www.w3.org/1999/xlink" viewBox="0 0 79.68 79.68"><defs><clipPath id="a" transform="translate(3.72 3.84)"><rect x="1.5" y="1.5" width="68.99" height="68.99" rx="6.16" style="fill:none"/></clipPath><clipPath id="b" transform="translate(3.72 3.84)"><rect x="-3.5" y="-3.5" width="78.99" height="78.99" style="fill:none"/></clipPath><clipPath id="c" transform="translate(3.72 3.84)"><rect x="4.03" y="4.03" width="63.93" height="63.93" rx="6.16" style="fill:none"/></clipPath><clipPath id="d" transform="translate(3.72 3.84)"><rect x="-0.97" y="-0.97" width="73.93" height="73.93" style="fill:none"/></clipPath><filter id="e" name="AI_RozmycieGaussowskie_4"><feGaussianBlur stdDeviation="4"/></filter></defs><rect x="5.22" y="5.34" width="68.99" height="68.99" rx="6.16" style="fill:#494b4c;stroke:#000;stroke-miterlimit:10;stroke-width:3px"/><g style="clip-path:url(#a)"><g style="clip-path:url(#b)"><image width="166" height="166" transform="scale(0.48)" xlink:href="greyBtnGauss1.png"/></g></g><g style="opacity:0.3"><g style="clip-path:url(#c)"><g style="clip-path:url(#d)"><image width="155" height="156" transform="translate(2.4 2.4) scale(0.48)" xlink:href="greyBtnGauss2.png"/></g></g></g><g style="filter:url(#e)"><path d="M60.09,9.21c1.48.34,3.31.83,3.29,2.47-.29,16.39,2,32.85-1.23,49.16a6.15,6.15,0,0,1-3.28-1.12,3.43,3.43,0,0,1-1-3.3A28,28,0,0,1,59,52.86c1-5.67.26-11.39.44-17.07,0-2.28,0-4.55,0-6.83.09-3.61-.06-7.23-.08-10.84.38-2.61-.93-5.22-.08-7.85Z" transform="translate(3.72 3.84)" style="fill:#3a3b3a"/><path d="M14.05,9.24a1.2,1.2,0,0,1,1,0c3.74-1.66,7.67-.49,11.5-.8a2,2,0,0,1,2,1.65,2.81,2.81,0,0,1-1.49,2.15c-2.79,1.4-6,1-8.89,1.92-1.59.42-3.21.68-4.83.95a17.52,17.52,0,0,1-3.62.39,3,3,0,0,1-2-1.18,3.74,3.74,0,0,1,.59-3.4l-.09.17C9.68,9,11.36,7.53,14.05,9.24Z" transform="translate(3.72 3.84)" style="fill:#4b4e4e"/><path d="M8.33,60.88l.08-16.12c4.28-4.8,6.59-1.35,8.92,2.08A8.51,8.51,0,0,1,18,50.5c0,1.63-3.08,2.8-1.58,4s3.09-1.73,5.08-1.69c3.51.4,6,1.73,5.61,5.85a6,6,0,0,1-3.78,3.54c-4.93,1-9.87,1.79-14.84.25A11.91,11.91,0,0,1,8.33,60.88Z" transform="translate(3.72 3.84)" style="fill:#3c3f3e"/><path d="M61.87,16.34V28.8C61,30.27,60.05,31.72,58,30.57c-.83-.79-1.58-2.43-2.46-2.31C45.83,29.6,45.72,23,45.26,16.52c1.2-2.42,3.47-4,5.64-2.5,3.72,2.62.92-2.14,2.35-1.74C57.62,10.51,59.37,14.21,61.87,16.34Z" transform="translate(3.72 3.84)" style="fill:#4d4f4f"/><path d="M58.41,30.55l3.46-1.75q0,3.57,0,7.14a11.26,11.26,0,0,1-1.35,1.23c-.85,1.07-.94,2.5-1.73,3.61-4.63,1.59-6.88-.7-8-4.83C52.62,33.19,54.09,29.87,58.41,30.55Z" transform="translate(3.72 3.84)" style="fill:#4b4d4d"/><path d="M60.19,55.52l-1.78,1.66a4.51,4.51,0,0,1-5.24.93c-1.75-1.18-2.74-2.67-2-4.87,2.36-3.42,4.91-6.27,9.49-3.17C61.13,51.94,61.53,53.8,60.19,55.52Z" transform="translate(3.72 3.84)" style="fill:#3b3e3d"/><path d="M61.87,16.34l-8.8-3.53a2,2,0,0,1-.56-1.74c.56-.85,1.59-1.09,2.3-1.74l5-.25Q60.83,12.71,61.87,16.34Z" transform="translate(3.72 3.84)" style="fill:#4f5151"/><path d="M60.19,55.52V50.09a7.56,7.56,0,0,1-2-6.46,33.84,33.84,0,0,0,1.11-4c0-1.33-.27-2.73.94-3.76.55,0,1.1,0,1.65,0C61.14,42.45,63.87,49.25,60.19,55.52Z" transform="translate(3.72 3.84)" style="fill:#545657"/><path d="M53.05,57.18h5.36c.62.63,1.24,1.25,1.87,1.87-2.57,2.83-6,1.22-9,1.75l-.7-1C50.54,58.15,50.5,56.45,53.05,57.18Z" transform="translate(3.72 3.84)" style="fill:#444747"/><path d="M8.4,30.6c0-1.21-.09-2.41-.13-3.62,0-4.14.1-8.27.15-12.41h1.71c4.77,2,10.23,1.21,14.92,3.56,1.64,5,3.47,10-5.28,9.28-1.94-.16-1.43,2.12-2.06,3.29A6.76,6.76,0,0,1,11,33.33C9.6,32.89,9.17,31.59,8.4,30.6Z" transform="translate(3.72 3.84)" style="fill:#4f5152"/><path d="M24.44,18.14C19,19.57,13.73,20.41,10.13,14.57l1.8-1.75c1.79,1.64,3.58,2.66,5.36,0,2.52-2.91,5.92-1.39,8.94-1.76a36.52,36.52,0,0,1,2.44,5.5,2.83,2.83,0,0,1-.89,2.16A2.74,2.74,0,0,1,24.44,18.14Z" transform="translate(3.72 3.84)" style="fill:#525555"/><path d="M28,16.36c-4.57-.45-2.81-3-1.79-5.31L28,11c1.54.07,3.11,0,4.53.74A3.2,3.2,0,0,1,34,15.7C32.29,18.24,30.14,17.21,28,16.36Z" transform="translate(3.72 3.84)" style="fill:#57595a"/><path d="M31.58,12.78A3.82,3.82,0,0,1,28,11q0-.81,0-1.62l10.66,0a1.66,1.66,0,0,1,0,2.21C36.63,13.69,33.83,11.63,31.58,12.78Z" transform="translate(3.72 3.84)" style="fill:#444746"/><path d="M17.29,12.81c1.41,1.25,1.56,2.66-.37,3.21-2.61.76-4.7,0-5-3.2Z" transform="translate(3.72 3.84)" style="fill:#595c5d"/><path d="M38.73,11c0-.55,0-1.11,0-1.66l1.8-.23,14.3.2L53,11.06c-2,1.88-4.7,1.74-7.17,2.25C43.17,13.43,40.62,13.25,38.73,11Z" transform="translate(3.72 3.84)" style="fill:#4d4f4f"/><path d="M8.4,30.6l1.75,1.71c3.46,2.75,8.17,3.14,11.56,6,.89,2.71-.08,5.22-.81,7.77-1.2,2.18-2.51,4.12-5.4,2.19-.8-4.27-3.32-5.14-7.09-3.55L8.26,43Q8.34,36.77,8.4,30.6Z" transform="translate(3.72 3.84)" style="fill:#444646"/><path d="M28.15,62.39c-.14-3.76,3-3.34,5.22-4,1.52-.15,3.05-.16,4.58-.21,4.62-.14,9.34-.79,13.33,2.46l0,.15c0,.52,0,1,0,1.56" transform="translate(3.72 3.84)" style="fill:#585a5b"/><path d="M37,60.72l-3.58,0c-1.94-2.42-4.83-1-7.18-1.76-.06-3.46-3.06-4-5.33-5.32a3.08,3.08,0,0,1-.79-2.16,3,3,0,0,1,2.49-2.17c2.16-.06,4.47.34,6-1.82s0-5.83,3.22-7.38a9.59,9.59,0,0,1,2.51-.82,9.73,9.73,0,0,1,6.62,1.29,9.9,9.9,0,0,1,3.17,6.12c.13,2.87-.45,5.36-3.56,6.45-3.16.08-5.54.62-2.67,4.37A3.22,3.22,0,0,1,37,60.72Z" transform="translate(3.72 3.84)" style="fill:#454848"/><path d="M22.65,50.08l-1.79,1.78c-2,1-2.78-.4-3.57-1.78L15.5,48.31a3.31,3.31,0,0,0,3.58-3.56c2.45-2.53,6.09-2.7,8.94-4.44a3.69,3.69,0,0,1,3.58.91c-2.32,1.93,3.15,5.82-1.8,7.09C27.48,49.14,25.38,50.88,22.65,50.08Z" transform="translate(3.72 3.84)" style="fill:#414343"/><path d="M17.29,50.08l3.57,1.78c0,.59,0,1.18,0,1.76-1.5,2.59-3.19,5-7.4,5.27C13.64,55.31,13,51.86,17.29,50.08Z" transform="translate(3.72 3.84)" style="fill:#373939"/><path d="M26.2,58.94c3.74-4.87,5.59-2.08,7.18,1.76-1.89.11-4-.3-5.24,1.69-2,.07-4.17.49-5.53-1.65Z" transform="translate(3.72 3.84)" style="fill:#494c4c"/><path d="M38.73,11l7.23.05a10.23,10.23,0,0,1-.06,5.24c.68,2.23,3.76,3.52,3,6.18-1.52,5,1,4.21,4,3,5.58-2.31,5.9,1,5.57,5.06-3.1.83-3.34,5.44-7.15,5.33-2-.19-3.31-1.56-4.73-2.75a32.49,32.49,0,0,1-4.11-3.93c-1.53-2.47.4-5.23-.69-7.71-.65-2.81-2.41-.07-3.51-.67a7.46,7.46,0,0,1-4.45-3.37c-.14-.37-.27-.74-.4-1.11a3.79,3.79,0,0,0-1.79-3.56C33.49,10.29,36.26,11.26,38.73,11Z" transform="translate(3.72 3.84)" style="fill:#4f5151"/><path d="M45.9,16.31A4.46,4.46,0,0,1,46,11.07h7c0,.58,0,1.16.07,1.75.24,1.35,1.89,3.86-1.53,2.67C49.26,14.69,47.71,15.62,45.9,16.31Z" transform="translate(3.72 3.84)" style="fill:#5f6161"/><path d="M47.68,32.33l3.58,3.55c2.17,1.61,3.67,4.56,7.16,3.55.58-.84,1.16-.84,1.75,0V43c-2.82,2.85-6.41,3.82-10.25,4.2-2.37-1.89-4.92-1.91-7.59-.66L40.53,41.2c-1.45-2-1.42-4.18-1-6.45A4.18,4.18,0,0,1,41,33C43.14,31.93,45.31,31.17,47.68,32.33Z" transform="translate(3.72 3.84)" style="fill:#484a4b"/><path d="M60.17,39.42H58.42c-.34-1.36-1.29-3-.85-4,.61-1.44,1.89-.55,2.65.49C60.2,37.07,60.18,38.25,60.17,39.42Z" transform="translate(3.72 3.84)" style="fill:#454746"/><path d="M42.32,46.54c2.52-1.26,1.16-5.21,4.35-6.08,4,.58-.43,5.12,2.8,6.07.25.27.5.53.76.79.8,1.67.56,3.52.91,5.27,0,.35.09.7.13,1,.6,1.18,1.19,2.36,1.78,3.54a3.65,3.65,0,0,0-1.77,3.47L37,60.72c0-1.17,0-2.35,0-3.53-1.33-2.42.2-3.89,1.79-5.33C42.3,51.66,42.35,49.12,42.32,46.54Z" transform="translate(3.72 3.84)" style="fill:#414444"/><path d="M49.47,46.53c3.1-2.57,6.78-3.4,10.69-3.53,0,2.37,0,4.73,0,7.09-3.9-1.11-5.54,3.35-8.91,3.55h0c-1.73-2.09,1.13-5.31-1.79-7.1Z" transform="translate(3.72 3.84)" style="fill:#414444"/><path d="M24.44,18.14H28c2.9-.75,5.19.76,7.57,2,1.76,5.77-.47,9.44-6.18,10.89A63.79,63.79,0,0,0,23,33.36c-2.59.46-4.65-.17-5.69-2.81-2.4-2.17-3.6-4-.3-6.84,4.13-3.54,3.41,2.64,6.08,2.28C25.64,23.94,23.94,20.8,24.44,18.14Z" transform="translate(3.72 3.84)" style="fill:#4b4d4e"/><path d="M17.29,30.55l5.36,1.78a6.41,6.41,0,0,1,4.45,1.31,5.56,5.56,0,0,1,2,4.16,3.94,3.94,0,0,1-1,2.09c-3.22,1.8-4.92-1.26-7.28-2.24-6.2,3.42-7.93-2-10.71-5.34Z" transform="translate(3.72 3.84)" style="fill:#494b4b"/><path d="M33.39,19.9c-3.16,3.5-3.47-1.51-5.38-1.77,0-.59,0-1.18,0-1.77,1.78-2,3.57.52,5.35,0l0,0A2.35,2.35,0,0,1,33.39,19.9Z" transform="translate(3.72 3.84)" style="fill:#4f5151"/><path d="M20.86,37.65c3.38-3.43,4.32,2.94,7.15,1.76.46.4.61.8.46,1.2s-.3.6-.45.6c-1.2,5.61-5.77,2.83-8.94,3.54C19.67,42.39,20.27,40,20.86,37.65Z" transform="translate(3.72 3.84)" style="fill:#3b3d3d"/><path d="M28,37.66l-1.79-3.55c3.08-5.83,10.16-5.83,14.31,0,.09,2.36,1.7,4.73,0,7.09H33.38C32,39.38,29.39,39.45,28,37.66Z" transform="translate(3.72 3.84)" style="fill:#414343"/><path d="M38.74,51.86,37,57.19c-3.4-.57-5.61-2.93-4.23-5.84C34,48.64,36.7,51.24,38.74,51.86Z" transform="translate(3.72 3.84)" style="fill:#3e4040"/><path d="M22.65,50.08c2-2.09,4-4.18,7.15-1.77C28.49,53.17,25.8,52.54,22.65,50.08Z" transform="translate(3.72 3.84)" style="fill:#494b4c"/><path d="M28,37.66c2.6,0,5.16,0,5.37,3.54l-1.78,0H28c0-.6,0-1.2,0-1.8Z" transform="translate(3.72 3.84)" style="fill:#3b3e3e"/><path d="M40.53,34.11c-4.77-1.45-9.54-4.66-14.31,0a3.81,3.81,0,0,1-3.57-1.78,6.06,6.06,0,0,1,5.6-3.56c6.12-.37,6.74-4,5.14-8.87V16.36c2.74-.24,3.53,2.43,5.36,3.55,1.18,2.47,2.38.88,3.58,0,7.57,1.58-1.71,6.5,1.78,8.88,1.29,3.42-2,3.78-3.58,5.32Z" transform="translate(3.72 3.84)" style="fill:#484a4b"/><path d="M42.33,19.91c-.22,2.74-1.74,6.18-4,5.51-3.14-.92.1-3.58.42-5.51C39.94,19.71,41.14,18,42.33,19.91Z" transform="translate(3.72 3.84)" style="fill:#4f5152"/><path d="M40.53,34.11c1.2-1.77,2.39-3.55,3.58-5.32a6.17,6.17,0,0,1,3.57,3.54A12.3,12.3,0,0,1,40.53,34.11Z" transform="translate(3.72 3.84)" style="fill:#434546"/><path d="M49.47,46.53c5.76,1.09,2.78,4.34,1.79,7.1C45.17,52.63,50.29,48.84,49.47,46.53Z" transform="translate(3.72 3.84)" style="fill:#494b4c"/></g></svg>