<?xml version="1.0" encoding="UTF-8" standalone="no"?>
<!-- Created with Inkscape (http://www.inkscape.org/) -->

<svg
   width="210mm"
   height="297mm"
   viewBox="0 0 210 297"
   version="1.1"
   id="svg5626"
   inkscape:version="1.1.1 (3bf5ae0d25, 2021-09-20)"
   sodipodi:docname="helm.svg"
   xmlns:inkscape="http://www.inkscape.org/namespaces/inkscape"
   xmlns:sodipodi="http://sodipodi.sourceforge.net/DTD/sodipodi-0.dtd"
   xmlns="http://www.w3.org/2000/svg"
   xmlns:svg="http://www.w3.org/2000/svg">
  <sodipodi:namedview
     id="namedview5628"
     pagecolor="#505050"
     bordercolor="#eeeeee"
     borderopacity="1"
     inkscape:pageshadow="0"
     inkscape:pageopacity="0"
     inkscape:pagecheckerboard="0"
     inkscape:document-units="mm"
     showgrid="false"
     inkscape:zoom="0.74118967"
     inkscape:cx="397.33419"
     inkscape:cy="561.93443"
     inkscape:window-width="1920"
     inkscape:window-height="1017"
     inkscape:window-x="-8"
     inkscape:window-y="-8"
     inkscape:window-maximized="1"
     inkscape:current-layer="layer1" />
  <defs
     id="defs5623" />
  <g
     inkscape:label="Warstwa 1"
     inkscape:groupmode="layer"
     id="layer1">
    <path
       id="path31-0"
       style="fill:#999999;stroke-width:0.264583"
       d="m 17.958108,63.860642 c 8.924278,50.689908 -35.696918,45.335018 -4.283459,72.464828 8.798723,7.5989 16.240791,11.23492 22.507153,12.24938 v 3.07165 c 0,1.9117 1.539253,3.45095 3.450952,3.45095 h 7.593851 a 56.758411,56.758411 0 0 0 2.088761,4.9134 v 43.85675 c 0,11.07467 8.91584,19.99051 19.990512,19.99051 h 62.006032 c 11.07468,0 19.99051,-8.91584 19.99051,-19.99051 v -43.85675 a 56.758411,56.758411 0 0 0 2.08876,-4.9134 h 6.42183 c 1.9117,0 3.45095,-1.53925 3.45095,-3.45095 v -2.91042 c 6.50463,-0.7323 14.32539,-4.33234 23.67918,-12.41061 31.41346,-27.12981 -13.20775,-21.77492 -4.28346,-72.464828 -23.91707,31.413468 -9.28109,46.048868 -9.28109,46.048868 0,0 -3.99457,5.42123 -10.11463,8.04964 v -0.46302 c 0,-1.9117 -1.53925,-3.45044 -3.45095,-3.45044 h -6.80269 A 56.758411,56.758411 0 0 0 100.30864,78.352781 56.758411,56.758411 0 0 0 47.653968,114.04569 h -8.021214 c -1.885129,0 -3.401229,1.49824 -3.4432,3.37293 -5.458356,-2.7647 -8.950359,-7.50911 -8.950359,-7.50911 0,0 14.635988,-14.635408 -9.281087,-46.048868 z M 96.66493,83.878024 A 44.535156,44.891248 0 0 1 108.05648,85.372507 56.999393,57.313985 0 0 0 53.375067,139.2426 44.535156,44.891248 0 0 1 52.130181,128.76934 44.535156,44.891248 0 0 1 96.66493,83.878024 Z M 72.562526,139.91078 h 55.492734 c 7.68577,0 13.87306,2.71326 13.87306,6.08387 0,3.37061 -6.18729,6.08438 -13.87306,6.08438 H 72.562526 c -7.685762,0 -13.873572,-2.71377 -13.87357,-6.08438 0,-3.37061 6.187808,-6.08387 13.87357,-6.08387 z m 27.746114,34.99838 v 5.3e-4 a 6.4254789,6.4254789 0 0 1 6.42544,6.42545 6.4254789,6.4254789 0 0 1 -6.42544,6.42545 6.4254789,6.4254789 0 0 1 -6.425452,-6.42545 6.4254789,6.4254789 0 0 1 5.58674,-6.37067 6.4254789,6.4254789 0 0 1 0.838712,-0.0553 z m -32.127241,5.3e-4 a 6.4254789,6.4254789 0 0 1 6.425446,6.42545 6.4254789,6.4254789 0 0 1 -6.425446,6.42545 6.4254789,6.4254789 0 0 1 -6.425448,-6.42545 6.4254789,6.4254789 0 0 1 6.425448,-6.42545 z m 64.254471,0 a 6.4254789,6.4254789 0 0 1 6.42545,6.42545 6.4254789,6.4254789 0 0 1 -6.42545,6.42545 6.4254789,6.4254789 0 0 1 -6.42545,-6.42545 6.4254789,6.4254789 0 0 1 6.42545,-6.42545 z m -47.833768,17.49144 a 6.4254789,6.4254789 0 0 1 6.425446,6.42545 6.4254789,6.4254789 0 0 1 -6.425446,6.42545 6.4254789,6.4254789 0 0 1 -6.425448,-6.42545 6.4254789,6.4254789 0 0 1 6.425448,-6.42545 z m 32.127238,0 a 6.4254789,6.4254789 0 0 1 6.42545,6.42545 6.4254789,6.4254789 0 0 1 -6.42545,6.42545 6.4254789,6.4254789 0 0 1 -6.42545,-6.42545 6.4254789,6.4254789 0 0 1 6.42545,-6.42545 z" />
  </g>
</svg>
