<?xml version="1.0" encoding="UTF-8" standalone="no"?>
<!-- Created with Inkscape (http://www.inkscape.org/) -->

<svg
   width="210mm"
   height="297mm"
   viewBox="0 0 210 297"
   version="1.1"
   id="svg894"
   inkscape:version="1.1.1 (3bf5ae0d25, 2021-09-20)"
   sodipodi:docname="potion.svg"
   xmlns:inkscape="http://www.inkscape.org/namespaces/inkscape"
   xmlns:sodipodi="http://sodipodi.sourceforge.net/DTD/sodipodi-0.dtd"
   xmlns="http://www.w3.org/2000/svg"
   xmlns:svg="http://www.w3.org/2000/svg">
  <sodipodi:namedview
     id="namedview896"
     pagecolor="#505050"
     bordercolor="#eeeeee"
     borderopacity="1"
     inkscape:pageshadow="0"
     inkscape:pageopacity="0"
     inkscape:pagecheckerboard="0"
     inkscape:document-units="mm"
     showgrid="false"
     inkscape:zoom="0.74118967"
     inkscape:cx="397.33419"
     inkscape:cy="561.93443"
     inkscape:window-width="1920"
     inkscape:window-height="1017"
     inkscape:window-x="-8"
     inkscape:window-y="-8"
     inkscape:window-maximized="1"
     inkscape:current-layer="layer1" />
  <defs
     id="defs891" />
  <g
     inkscape:label="Warstwa 1"
     inkscape:groupmode="layer"
     id="layer1">
    <path
       id="path31-3"
       style="fill:#999999;stroke-width:0.192329"
       d="m 97.979849,50.676645 c -3.11717,0 -5.62653,2.509358 -5.62653,5.626528 v 14.859042 c 0,3.117173 2.50936,5.626531 5.62653,5.626531 h 22.506641 c 3.11718,0 5.62653,-2.509358 5.62653,-5.626531 V 56.303173 c 0,-3.11717 -2.50935,-5.626528 -5.62653,-5.626528 z m -8.8563,20.016866 c -5.57029,0 -10.05469,4.484386 -10.05469,10.054682 v 7.734411 c 0,3.941414 2.24659,7.33693 5.533,8.98705 v 35.249006 a 56.758411,56.758411 0 0 0 -32.12724,51.13487 56.758411,56.758411 0 0 0 56.758291,56.75828 56.758411,56.758411 0 0 0 56.75881,-56.75828 56.758411,56.758411 0 0 0 -32.12775,-51.13021 V 97.469654 c 3.28649,-1.650093 5.53299,-5.045578 5.53299,-8.98705 v -7.734411 c 0,-5.570296 -4.48438,-10.054682 -10.05468,-10.054682 h -1.71204 v 2.001943 c 0,3.397335 -2.7351,6.132444 -6.13244,6.132444 H 96.968549 c -3.39734,0 -6.13245,-2.735109 -6.13245,-6.132444 v -2.001943 z m 2.44584,28.092342 H 110.2406 v 49.168577 a 21.775236,23.560094 0 0 0 -11.767241,20.90621 21.775236,23.560094 0 0 0 21.775421,23.56032 21.775236,23.560094 0 0 0 21.77541,-23.56032 21.775236,23.560094 0 0 0 -20.33467,-23.50657 V 98.785853 h 5.20691 v 42.603087 a 47.12019,47.12019 0 0 1 29.10004,43.53532 47.12019,47.12019 0 0 1 -47.12013,47.12012 47.12019,47.12019 0 0 1 -47.120631,-47.12012 47.12019,47.12019 0 0 1 29.81368,-43.82265 z m -23.61819,82.641467 a 42.798637,39.773772 0 0 0 -0.53434,6.20272 42.798637,39.773772 0 0 0 42.798941,39.7738 42.798637,39.773772 0 0 0 22.86682,-6.18567 54.507698,44.901836 0 0 1 -10.88874,0.93276 54.507698,44.901836 0 0 1 -54.242681,-40.72361 z" />
  </g>
</svg>
