<?xml version="1.0" encoding="UTF-8" standalone="no"?>
<!-- Created with Inkscape (http://www.inkscape.org/) -->

<svg
   width="210mm"
   height="297mm"
   viewBox="0 0 210 297"
   version="1.1"
   id="svg5"
   inkscape:version="1.1.1 (3bf5ae0d25, 2021-09-20)"
   sodipodi:docname="skull-ink.svg"
   xmlns:inkscape="http://www.inkscape.org/namespaces/inkscape"
   xmlns:sodipodi="http://sodipodi.sourceforge.net/DTD/sodipodi-0.dtd"
   xmlns="http://www.w3.org/2000/svg"
   xmlns:svg="http://www.w3.org/2000/svg">
  <sodipodi:namedview
     id="namedview7"
     pagecolor="#505050"
     bordercolor="#eeeeee"
     borderopacity="1"
     inkscape:pageshadow="0"
     inkscape:pageopacity="0"
     inkscape:pagecheckerboard="0"
     inkscape:document-units="mm"
     showgrid="false"
     inkscape:zoom="0.74118967"
     inkscape:cx="648.28211"
     inkscape:cy="346.06527"
     inkscape:window-width="1920"
     inkscape:window-height="1017"
     inkscape:window-x="-8"
     inkscape:window-y="-8"
     inkscape:window-maximized="1"
     inkscape:current-layer="layer1" />
  <defs
     id="defs2" />
  <g
     inkscape:label="Warstwa 1"
     inkscape:groupmode="layer"
     id="layer1">
    <path
       style="display:inline;fill:#333333;stroke:none;stroke-width:0.173825"
       d="m 100.81465,229.2626 c -9.127306,-0.75825 -19.422466,-3.86915 -29.289626,-8.85095 -12.95434,-6.54056 -20.55852,-13.93124 -22.70445,-22.06693 -0.24735,-0.9364 -0.32097,-1.8572 -0.32391,-3.99798 -0.003,-2.60014 0.0442,-2.96234 0.64194,-5.56248 1.33982,-5.77038 1.70599,-8.83461 1.82599,-15.26931 0.0883,-4.80953 -0.0736,-8.63952 -0.48882,-11.669 l -0.16784,-1.21173 -1.79508,-1.82982 c -4.97001,-5.06587 -6.98991,-9.85317 -6.38861,-15.14106 0.21496,-1.88621 0.45053,-2.96087 1.1867,-5.41673 l 0.45643,-1.51945 -0.46084,-2.13091 c -1.76975,-8.18118 -1.69054,-15.75031 0.24588,-23.51129 4.94233,-19.80675 21.70444,-35.852564 43.18273,-41.337604 6.83606,-1.745896 11.918708,-2.225142 21.293506,-2.007972 4.77523,0.117787 7.03468,0.325386 10.86408,1.035052 21.75141,4.031403 39.66429,18.731796 46.26065,37.964184 3.17126,9.24627 3.6645,18.33 1.52195,28.02724 l -0.43139,1.95335 0.45495,1.43553 c 1.94981,6.14642 1.64401,10.84376 -0.99824,15.34218 -1.07481,1.82982 -2.08984,3.10354 -4.15479,5.21472 l -1.87016,1.91213 -0.30772,2.60736 c -0.4417,3.74665 -0.44464,13.36896 -0.004,17.03493 0.35041,2.92376 0.93051,6.21473 1.58452,8.97889 0.65519,2.77197 0.83776,4.76595 0.61691,6.76347 -0.52709,4.78877 -2.83645,9.08564 -7.2913,13.56537 -5.65833,5.68969 -15.25296,11.35023 -25.84495,15.24751 -3.12297,1.14989 -13.30947,3.48237 -17.96706,4.11547 -1.95953,0.26649 -7.93103,0.4682 -9.64733,0.32539 z m 13.93949,-88.84179 c -0.0442,-0.16932 -0.0883,-0.0736 -0.0883,0.21349 -0.003,0.28711 0.0294,0.42551 0.0736,0.30772 0.0442,-0.11779 0.0442,-0.35189 0.008,-0.52121 z"
       id="dark" />
    <path
       id="light"
       style="display:inline;fill:#4d4d4d;stroke:none;stroke-width:0.173825"
       d="m 104.68671,68.694804 c -7.346806,-0.02945 -11.985254,0.527097 -17.966764,2.055381 -18.55394,4.738125 -33.38905,17.247829 -40.36645,33.189695 -1.44289,9.49009 -3.61076,27.96555 1.44142,27.83893 7.41718,-7.35535 16.64137,-20.95988 8.67839,-37.507761 9.37259,6.374041 8.94061,23.060471 3.47662,29.723231 -5.73622,6.43146 -10.95094,8.34402 -12.51529,12.8635 -1.56451,4.51949 0.17373,14.42801 3.64962,17.38299 3.47648,2.95498 9.38673,7.64687 14.94922,8.86361 5.28053,1.15579 12.12439,3.56556 13.69699,8.56576 -0.0294,0.10306 -0.0589,0.20171 -0.0883,0.30183 -0.76267,2.31083 -1.45908,3.80378 -3.03772,6.51641 -0.90254,1.55125 -1.17492,2.81746 -0.97027,4.48518 0.3298,2.68304 1.58939,5.08957 3.84295,7.34372 2.12752,2.12796 4.32277,3.40286 8.29985,4.81733 3.4273,1.2191 8.828858,2.51799 13.854084,3.33367 1.10278,0.13251 2.22132,0.24735 3.30761,0.24293 1.08658,-0.004 2.27991,0.13251 3.38387,-0.0589 8.82371,-1.4473 15.93833,-3.79804 19.51287,-6.12786 2.54478,-1.65873 4.77964,-4.25947 5.81985,-6.77201 0.54918,-1.32658 0.69052,-2.08218 0.69494,-3.70808 0.003,-1.33982 -0.0118,-1.47616 -0.22527,-2.06348 -0.13251,-0.346 -0.58599,-1.24707 -1.01886,-2.00296 -1.43111,-2.49929 -2.05214,-3.87254 -2.82423,-6.24256 -0.008,-0.0147 -0.0147,-0.0442 -0.0147,-0.0589 1.56789,-5.0055 8.41557,-7.41792 13.69905,-8.57371 5.56234,-1.21615 11.47259,-5.90863 14.94922,-8.86361 3.47648,-2.95512 5.21413,-12.86351 3.64963,-17.38299 -1.56436,-4.51948 -6.77908,-6.43204 -12.5153,-12.86365 -5.44293,-8.78278 -6.85476,-24.212276 3.47662,-29.72323 -7.96298,16.54803 1.2618,30.15256 8.6784,37.50791 5.06262,0.13251 2.87576,-18.4332 1.43405,-27.90548 -7.54852,-17.309226 -24.48686,-30.340284 -44.74886,-34.095624 -3.82954,-0.709666 -6.08943,-0.9261 -10.86466,-1.036525 -1.17198,-0.02945 -2.27608,-0.04417 -3.32556,-0.04417 z m 37.23803,55.349676 c 1.8974,-4.4e-4 3.48708,0.40048 4.58986,1.24266 0.33716,0.25618 0.82451,0.93199 1.144,1.57834 l 0.55507,1.12928 -0.0883,3.34574 c -0.10306,3.72854 -0.41814,5.86402 -1.19406,8.20739 -1.1072,3.34618 -2.53831,4.98312 -5.81573,6.65319 -2.48191,1.26474 -3.76182,1.69599 -6.06749,2.04125 -1.86472,0.27974 -5.43602,0.31508 -7.11212,0.0736 -4.1888,-0.61102 -7.08739,-2.33218 -8.39865,-4.9843 -0.63311,-1.27946 -0.65372,-1.38547 -0.65372,-3.17068 0,-1.82275 0.008,-1.86515 0.73323,-3.31157 1.27946,-2.55657 3.66479,-4.97989 7.26318,-7.37788 5.21781,-3.47722 10.87762,-5.42232 15.05184,-5.4232 z m -74.061444,0.0589 c 0.1649,-5.9e-4 0.33716,0 0.51679,0.002 1.82893,0.0147 2.49782,0.10306 4.22958,0.56537 7.67514,2.02343 15.44804,7.35079 17.8319,12.22348 0.72734,1.48839 0.92168,2.6424 0.70231,4.18527 -0.54918,3.86812 -3.56423,6.32324 -8.80914,7.17454 -1.65667,0.26944 -5.41613,0.29889 -7.08812,0.0589 -2.89064,-0.41961 -6.24977,-1.74428 -8.50524,-3.35383 -3.12327,-2.22868 -4.66363,-6.45782 -4.91407,-13.48763 -0.13251,-3.71956 0.0589,-4.53156 1.42669,-5.85799 1.20585,-1.17492 2.13062,-1.49751 4.60783,-1.50781 z m 34.401714,21.09916 c 0.82156,0 0.51973,4.09545 -0.51973,7.03983 -0.69642,1.97175 -1.19996,2.97367 -2.303026,4.57366 -1.57025,2.27903 -3.46662,3.5981 -4.5535,3.16656 -0.942288,-0.37398 -1.466438,-1.68539 -1.600428,-4.00402 0.24294,-4.19631 6.142298,-8.62244 8.976394,-10.77603 z m 5.36078,0 c 0.0147,-8.8e-4 0.0442,0 0.0589,0 3.13784,3.04582 9.165,7.10579 8.97242,10.90692 -0.10307,1.93774 -0.44318,2.96411 -1.20732,3.60752 -0.56538,0.47556 -0.67875,0.49176 -1.44583,0.22085 -1.52152,-0.53741 -3.46117,-2.68805 -4.74888,-5.26419 -1.33982,-2.67951 -1.9426,-5.08369 -1.9426,-7.74626 0,-1.54639 0.0116,-1.71071 0.30772,-1.72528 z m -51.490684,19.06793 c -0.14723,0.013 -0.24441,0.20465 -0.5374,0.84954 -2.00989,4.41009 -2.81938,10.44387 -2.10382,15.66786 0.13251,0.93788 0.17079,1.04978 0.41814,1.08511 0.24735,0.0294 0.27827,-0.0132 0.27827,-0.44906 0,-0.76267 0.45495,-3.24017 0.91874,-5.00462 1.05125,-4.00593 2.51725,-6.97666 3.76035,-7.61948 0.84364,-0.43581 1.74692,-0.0736 2.21439,0.8834 1.05566,2.16301 -0.28563,8.78322 -2.83646,13.99293 -0.91284,1.86457 -1.25884,2.39756 -3.15845,4.87977 -2.81629,3.67966 -3.72619,5.79128 -3.72619,8.64423 0,3.45233 1.02622,6.00433 3.57925,8.9119 1.02033,1.16168 6.26965,6.13037 7.21091,6.82428 1.04094,0.76709 2.85427,1.78226 5.68086,3.18069 10.0194,4.95706 26.796818,10.86599 34.170124,12.03429 2.08748,0.29005 4.13446,0.10306 5.98077,0 7.37332,-1.16904 24.15088,-7.07723 34.17013,-12.03429 2.82659,-1.39872 4.63859,-2.4136 5.67894,-3.18069 0.94083,-0.69347 6.19265,-5.66246 7.21283,-6.82428 2.55318,-2.90757 3.57734,-5.45957 3.57734,-8.9119 0,-2.85295 -0.90991,-4.96457 -3.72619,-8.64423 -1.89976,-2.48221 -2.24384,-3.0152 -3.15654,-4.87977 -2.55053,-5.20971 -3.8936,-11.82992 -2.83852,-13.99293 0.4682,-0.95849 1.37369,-1.31921 2.21646,-0.8834 1.24265,0.64341 2.7085,3.61355 3.76034,7.61948 0.46379,1.76445 0.91727,4.24225 0.91727,5.00462 0,0.43581 0.0294,0.4844 0.27532,0.44906 0.24883,-0.0294 0.293,-0.14723 0.42109,-1.08511 0.71556,-5.22399 -0.0883,-11.25777 -2.10367,-15.66786 -0.39164,-0.85985 -0.44317,-0.9158 -0.70672,-0.81273 -5.23342,2.03109 -6.54571,2.9538 -7.06192,4.96236 -0.39164,1.52343 -0.11778,3.17274 1.73927,10.29089 2.0838,8.01128 2.59588,10.73481 2.49031,13.2098 -0.0736,1.57746 -0.23851,2.10485 -1.20731,3.71618 -2.71366,4.51094 -7.03556,8.9147 -10.34125,10.53648 -1.4208,0.69641 -2.32644,0.93051 -3.60133,0.93051 -1.30449,0 -1.96557,-0.30771 -2.36546,-1.1013 -0.3563,-0.70672 -0.35925,-1.56274 -0.0147,-3.71014 0.23999,-1.49177 0.25177,-1.79758 0.13251,-3.54303 -0.15312,-2.20836 -0.27827,-2.67362 -0.74353,-2.79023 -0.3622,-0.0883 -0.8039,0.0589 -3.33779,1.12192 -3.07821,1.29271 -12.38087,4.32322 -17.51579,5.70516 -2.3712,0.63752 -3.86312,0.97174 -5.46958,1.22793 l -1.28977,0.20465 c 0,0 -0.0736,0.006 -0.10306,0.006 -0.0294,0 -0.10306,-0.006 -0.10306,-0.006 l -1.28977,-0.20465 c -1.60632,-0.25619 -3.09824,-0.59041 -5.469576,-1.22793 -5.134918,-1.38252 -14.437578,-4.4123 -17.515798,-5.70516 -2.53344,-1.0645 -2.97765,-1.21173 -3.3397,-1.12192 -0.46378,0.11779 -0.58746,0.58158 -0.74058,2.79008 -0.11779,1.74546 -0.10306,2.05141 0.13251,3.54303 0.346,2.1474 0.34158,3.00371 -0.0147,3.71014 -0.40048,0.79359 -1.06303,1.10131 -2.36737,1.10131 -1.27505,0 -2.18097,-0.23263 -3.60134,-0.93052 -3.30569,-1.62163 -7.62758,-6.02554 -10.34124,-10.53648 -0.9688,-1.61132 -1.14106,-2.13871 -1.20732,-3.71617 -0.10306,-2.475 0.40931,-5.19838 2.49222,-13.2098 1.85147,-7.11816 2.13092,-8.76747 1.73927,-10.2909 -0.51679,-2.00856 -1.83055,-2.93127 -7.06382,-4.96221 -0.0589,-0.0294 -0.11779,-0.0442 -0.16638,-0.0294 z" />
  </g>
</svg>
