<?xml version="1.0" encoding="UTF-8" standalone="no"?>
<!-- Created with Inkscape (http://www.inkscape.org/) -->

<svg
   width="210mm"
   height="297mm"
   viewBox="0 0 210 297"
   version="1.1"
   id="svg5"
   inkscape:version="1.1.1 (3bf5ae0d25, 2021-09-20)"
   sodipodi:docname="skull-ink.svg"
   xmlns:inkscape="http://www.inkscape.org/namespaces/inkscape"
   xmlns:sodipodi="http://sodipodi.sourceforge.net/DTD/sodipodi-0.dtd"
   xmlns="http://www.w3.org/2000/svg"
   xmlns:svg="http://www.w3.org/2000/svg">
  <sodipodi:namedview
     id="namedview7"
     pagecolor="#505050"
     bordercolor="#eeeeee"
     borderopacity="1"
     inkscape:pageshadow="0"
     inkscape:pageopacity="0"
     inkscape:pagecheckerboard="0"
     inkscape:document-units="mm"
     showgrid="false"
     inkscape:zoom="0.74118967"
     inkscape:cx="397.33419"
     inkscape:cy="669.86902"
     inkscape:window-width="1920"
     inkscape:window-height="1017"
     inkscape:window-x="-8"
     inkscape:window-y="-8"
     inkscape:window-maximized="1"
     inkscape:current-layer="layer1" />
  <defs
     id="defs2" />
  <g
     inkscape:label="Warstwa 1"
     inkscape:groupmode="layer"
     id="layer1">
    <path
       d="m 180.41565,115.58677 a 61.632272,61.632272 0 0 0 -2.74912,-12.63104 64.827194,64.827194 0 0 0 -5.16389,-11.590881 69.248074,69.248074 0 0 0 -60.29486,-33.84382 69.173774,69.173774 0 0 0 -60.257714,33.84382 62.449577,62.449577 0 0 0 -5.201026,11.590881 59.217505,59.217505 0 0 0 -2.711971,12.63104 54.833775,54.833775 0 0 0 -0.371526,6.5757 57.582895,57.582895 0 0 0 0.371526,6.27831 c 0,0.92811 0.222831,1.82042 0.371526,2.71203 0.148554,0.8916 0.334317,2.11753 0.557288,3.1949 0.222832,1.07694 0.482872,2.30329 0.780121,3.45493 0.297249,1.15137 0.371526,1.30021 0.594357,1.93177 0.408735,1.33811 0.817329,2.67482 1.300341,4.01223 0.668634,5.16401 1.4117,9.95636 1.4117,12.66825 a 14.860101,14.860101 0 0 0 15.04586,15.04596 l 5.572538,2.71188 v 0 a 19.949687,19.949687 0 0 1 1.968961,3.71512 13.076889,13.076889 0 0 1 0.557289,1.56024 c 0,0.48301 0.26004,0.92952 0.371526,1.41169 a 18.315075,18.315075 0 0 1 0.408735,3.49215 v 3.71497 a 18.575128,18.575128 0 0 0 18.575132,18.57518 H 132.82636 A 18.575128,18.575128 0 0 0 151.4015,188.0669 v -3.71497 a 18.315075,18.315075 0 0 1 0.40859,-3.49215 c 0,-0.48301 0.22298,-0.92812 0.37153,-1.41169 0.14855,-0.48301 0.37153,-1.04044 0.55729,-1.56024 a 20.098287,20.098287 0 0 1 2.00611,-3.71512 v 0 l 5.60969,-2.71188 a 15.045853,15.045853 0 0 0 15.083,-15.04596 c 0,-2.71189 0.70584,-7.42996 1.37462,-12.66825 0.52008,-1.33811 0.92881,-2.67482 1.33741,-4.01223 l 0.55729,-1.93177 c 0.29725,-1.15136 0.55729,-2.30329 0.81733,-3.45493 0.26004,-1.15137 0.37152,-2.11753 0.52008,-3.1949 0.14855,-1.07695 0.29725,-1.78321 0.40859,-2.71203 0,-2.04325 0.33432,-4.12371 0.33432,-6.27831 a 63.861287,63.861287 0 0 0 -0.37153,-6.5757 z M 85.348142,162.65613 A 18.575128,18.575128 0 0 1 66.773024,144.0811 c 0,-10.36496 0.631566,-14.8602 11.145077,-14.8602 10.513524,0 26.488129,4.60673 26.488129,14.8602 a 18.575128,18.575128 0 0 1 -19.058088,18.57503 z m 26.859638,4.60672 c -3.71502,0 -6.53845,6.87281 -6.53845,3.26918 a 12.222434,12.222434 0 0 1 3.71504,-8.24729 c 0.8544,-0.70626 1.78321,1.96884 2.78626,1.96884 1.00309,0 1.93181,-2.67482 2.78628,-1.96884 a 12.259584,12.259584 0 0 1 3.71502,8.24729 c 0.11092,3.60363 -2.82342,-3.26918 -6.46415,-3.26918 z m 31.39197,-4.60672 A 18.575128,18.575128 0 0 1 125.02461,144.0811 c 0,-10.36496 16.16037,-14.8602 26.48815,-14.8602 10.32776,0 11.14508,4.60673 11.14508,14.8602 a 18.575128,18.575128 0 0 1 -19.05809,18.57503 z"
       id="path9"
       style="stroke-width:3.71502" />
  </g>
</svg>
